<?xml version="1.0" encoding="UTF-8"?>
<svg width="389px" height="128px" viewBox="0 0 389 128" version="1.1" xmlns="http://www.w3.org/2000/svg" xmlns:xlink="http://www.w3.org/1999/xlink">
    <!-- Generator: Sketch 57.1 (83088) - https://sketch.com -->
    <title>Horizontal</title>
    <desc>Created with Sketch.</desc>
    <g id="Horizontal" stroke="none" stroke-width="1" fill="none" fill-rule="nonzero">
        <g id="Logo" transform="translate(14.000000, 15.000000)">
            <path d="M33.185,5.135 C24.348,5.516 22.631,6.851 22.631,16.324 L22.631,80.914 C22.631,90.386 24.348,91.721 33.185,91.721 L42.721,91.721 C58.995,91.721 62.237,85.491 64.081,67.373 L67.069,67.373 C66.815,70.106 66.688,73.857 66.688,78.053 C66.688,81.295 66.942,88.098 67.578,94.709 C58.741,94.328 46.471,94.328 37.762,94.328 C29.942,94.328 12.778,94.328 -1.42108547e-14,94.709 L-1.42108547e-14,92.103 C8.836,91.721 10.553,90.386 10.553,80.914 L10.553,16.324 C10.553,6.851 8.836,5.516 -1.42108547e-14,5.135 L-1.42108547e-14,2.528 C3.623,2.783 9.917,2.91 16.656,2.91 C22.631,2.91 29.179,2.783 33.185,2.528 L33.185,5.135" id="Fill-2640" fill="#16262B"></path>
            <path d="M67.136,4.918 C70.22,3.33 73.571,2.353 77.255,2.353 C86.219,2.353 94.802,5.467 100.269,12.524 C103.956,17.229 104.974,20.725 106.817,31.787 L109.805,31.787 C109.805,16.656 109.932,8.201 110.314,1.844 L107.326,1.844 C106.88,7.184 105.8,9.6 104.02,9.6 C103.257,9.6 102.431,9.218 101.477,8.456 C95.755,4.069 88.953,0 77.51,0 C73.857,0 70.433,0.583 67.136,1.438 L67.136,4.918" id="Fill-2641" fill="#16262B"></path>
            <path d="M106.817,62.747 C105.482,73.3 104.592,78.258 100.777,83.344 C95.882,90.401 86.347,93.262 78.527,93.262 C74.439,93.262 70.61,92.276 67.136,90.418 L67.136,94.657 C70.379,95.386 73.761,95.868 77.383,95.868 C88.572,95.868 95.056,91.927 101.477,87.413 C102.558,86.714 103.448,86.332 104.147,86.332 C105.991,86.332 106.88,88.685 107.326,94.024 L110.314,94.024 C109.932,87.413 109.805,78.513 109.805,62.747 L106.817,62.747" id="Fill-2642" fill="#16262B"></path>
            <path d="M148.762,4.446 L148.762,1.839 C145.138,2.094 138.908,2.221 132.106,2.221 C126.129,2.221 119.645,2.094 115.577,1.839 L115.577,4.446 C124.413,4.827 126.129,6.162 126.129,15.635 L126.129,46.34 L95.035,46.34 L95.035,48.947 L126.129,48.947 L126.129,80.225 C126.129,89.697 124.413,91.032 115.577,91.414 L115.577,94.02 C119.645,93.766 126.129,93.639 132.106,93.639 C138.908,93.639 145.138,93.766 148.762,94.02 L148.762,91.414 C139.925,91.032 138.209,89.697 138.209,80.225 L138.209,15.635 C138.209,6.162 139.925,4.827 148.762,4.446" id="Fill-2643" fill="#16262B"></path>
            <path d="M204.698,2.469 C202.465,2.566 202.031,2.903 202.031,5.297 L202.031,21.622 C202.031,24.016 202.465,24.353 204.698,24.353 L207.108,24.353 C211.222,24.353 212.041,22.779 212.507,18.199 L213.262,18.199 C213.198,18.89 213.166,19.838 213.166,20.899 C213.166,21.718 213.23,23.438 213.391,25.108 C211.157,25.012 208.056,25.012 205.855,25.012 C203.879,25.012 199.541,25.012 196.311,25.108 L196.311,24.45 C198.545,24.353 198.978,24.016 198.978,21.622 L198.978,5.297 C198.978,2.903 198.545,2.566 196.311,2.469 L196.311,1.811 C197.227,1.875 198.817,1.907 200.521,1.907 C202.031,1.907 203.686,1.875 204.698,1.811 L204.698,2.469" id="Fill-2644" fill="#16262B"></path>
            <path d="M233.435,18.521 C233.371,19.115 233.339,19.983 233.339,20.899 C233.339,21.718 233.403,23.438 233.564,25.108 C231.33,25.012 228.229,25.012 226.028,25.012 C224.052,25.012 219.713,25.012 216.484,25.108 L216.484,24.45 C218.717,24.353 219.151,24.016 219.151,21.622 L219.151,5.297 C219.151,2.903 218.717,2.566 216.484,2.469 L216.484,1.811 C219.713,1.907 224.052,1.907 226.028,1.907 C228.037,1.907 230.864,1.907 232.905,1.811 C232.744,3.353 232.68,4.944 232.68,5.699 C232.68,6.486 232.712,7.241 232.776,7.739 L232.021,7.739 C231.587,3.851 231.089,2.566 227.603,2.566 L224.871,2.566 C222.638,2.566 222.204,2.903 222.204,5.297 L222.204,13.058 L224.389,13.058 C227.249,13.058 227.185,10.294 227.442,8.72 L228.197,8.72 C228.101,10.117 228.085,11.065 228.085,11.821 C228.085,12.431 228.101,12.913 228.101,13.395 C228.101,14.472 228.133,15.564 228.294,18.071 L227.538,18.071 C227.281,15.966 227.249,13.716 224.389,13.716 L222.204,13.716 L222.204,21.622 C222.204,24.016 222.638,24.353 224.871,24.353 L227.281,24.353 C231.395,24.353 232.214,22.875 232.68,18.521 L233.435,18.521" id="Fill-2645" fill="#16262B"></path>
            <path d="M240.995,13.524 C240.995,20.529 244.225,24.98 248.274,24.98 C252.547,24.98 255.311,20.208 255.311,13.395 C255.311,6.39 252.098,1.939 248.048,1.939 C243.759,1.939 240.995,6.711 240.995,13.524 Z M258.605,13.267 C258.605,20.625 254.267,25.574 248.145,25.574 C241.895,25.574 237.717,21.188 237.717,13.652 C237.717,6.293 242.055,1.345 248.177,1.345 C254.427,1.345 258.605,5.731 258.605,13.267 L258.605,13.267 Z" id="Fill-2646" fill="#16262B"></path>
            <path d="M214.676,58.023 C214.564,56.673 214.339,56.079 213.873,56.079 C213.696,56.079 213.471,56.175 213.198,56.352 C211.575,57.493 209.936,58.489 207.108,58.489 C200.858,58.489 196.681,54.103 196.681,46.567 C196.681,39.208 201.019,34.259 207.141,34.259 C210.033,34.259 211.752,35.288 213.198,36.396 C213.439,36.589 213.648,36.686 213.841,36.686 C214.291,36.686 214.564,36.075 214.676,34.725 L215.431,34.725 C215.335,36.332 215.303,38.469 215.303,42.293 L214.548,42.293 C214.082,39.497 213.825,38.613 212.893,37.424 C211.511,35.641 209.342,34.854 207.076,34.854 C202.786,34.854 199.959,39.304 199.959,46.438 C199.959,53.781 203.156,57.83 207.398,57.83 C209.374,57.83 211.784,57.107 213.021,55.324 C213.985,54.038 214.211,52.785 214.548,50.118 L215.303,50.118 C215.303,54.103 215.335,56.352 215.431,58.023 L214.676,58.023" id="Fill-2647" fill="#16262B"></path>
            <path d="M227.587,38.726 L223.811,48.543 L231.267,48.543 L227.587,38.726 Z M237.051,55.259 C237.71,56.93 238.642,57.332 239.333,57.364 L239.333,58.023 C238.433,57.958 237.051,57.927 235.797,57.927 C234.094,57.927 232.52,57.958 231.588,58.023 L231.588,57.364 C233.179,57.3 233.918,57.059 233.918,56.143 C233.918,55.757 233.789,55.259 233.532,54.601 L231.507,49.202 L223.57,49.202 L222.221,52.688 C221.771,53.829 221.562,54.713 221.562,55.388 C221.562,56.818 222.542,57.316 224.422,57.364 L224.422,58.023 C223.169,57.958 221.787,57.927 220.63,57.927 C219.521,57.927 218.83,57.958 218.171,58.023 L218.171,57.364 C219.023,57.171 220.003,56.48 220.758,54.504 L228.503,34.564 L229.033,34.564 L237.051,55.259 L237.051,55.259 Z" id="Fill-2648" fill="#16262B"></path>
            <path d="M248.612,47.949 C253.272,47.949 254.3,44.96 254.3,41.602 C254.3,37.457 252.822,35.384 248.837,35.384 C246.829,35.384 246.395,35.946 246.395,38.212 L246.395,47.949 L248.612,47.949 Z M246.395,54.536 C246.395,56.93 246.957,57.268 249.721,57.364 L249.721,58.023 C248.58,57.958 246.668,57.927 244.884,57.927 C243.181,57.927 241.591,57.958 240.675,58.023 L240.675,57.364 C242.908,57.268 243.342,56.93 243.342,54.536 L243.342,38.212 C243.342,35.818 242.908,35.48 240.675,35.384 L240.675,34.725 C241.591,34.79 243.246,34.821 244.692,34.821 C246.764,34.821 248.869,34.757 249.657,34.757 C254.959,34.757 257.594,37.424 257.594,41.249 C257.594,44.43 255.746,48.607 248.934,48.607 L246.395,48.607 L246.395,54.536 L246.395,54.536 Z" id="Fill-2649" fill="#16262B"></path>
            <path d="M269.139,35.384 C266.905,35.48 266.472,35.818 266.472,38.212 L266.472,54.536 C266.472,56.93 266.905,57.268 269.139,57.364 L269.139,58.023 C268.127,57.958 266.472,57.927 264.961,57.927 C263.258,57.927 261.668,57.958 260.752,58.023 L260.752,57.364 C262.985,57.268 263.419,56.93 263.419,54.536 L263.419,38.212 C263.419,35.818 262.985,35.48 260.752,35.384 L260.752,34.725 C261.668,34.79 263.258,34.821 264.961,34.821 C266.472,34.821 268.127,34.79 269.139,34.725 L269.139,35.384" id="Fill-2650" fill="#16262B"></path>
            <path d="M272.439,41.634 C272.503,40.943 272.535,39.995 272.535,38.935 C272.535,38.115 272.471,36.396 272.294,34.725 C275.026,34.821 278.882,34.821 281.581,34.821 C284.281,34.821 288.088,34.821 290.82,34.725 C290.659,36.396 290.595,38.115 290.595,38.935 C290.595,39.995 290.628,40.943 290.691,41.634 L289.937,41.634 C289.47,37.055 288.988,35.48 284.875,35.48 L283.091,35.48 L283.091,54.199 C283.091,56.866 283.654,57.268 286.418,57.364 L286.418,58.023 C285.261,57.958 283.365,57.927 281.581,57.927 C279.605,57.927 277.757,57.958 276.713,58.023 L276.713,57.364 C279.477,57.268 280.039,56.866 280.039,54.199 L280.039,35.48 L278.255,35.48 C274.142,35.48 273.644,37.055 273.194,41.634 L272.439,41.634" id="Fill-2651" fill="#16262B"></path>
            <path d="M300.259,38.726 L296.483,48.543 L303.939,48.543 L300.259,38.726 Z M309.723,55.259 C310.382,56.93 311.314,57.332 312.005,57.364 L312.005,58.023 C311.105,57.958 309.723,57.927 308.47,57.927 C306.767,57.927 305.192,57.958 304.26,58.023 L304.26,57.364 C305.851,57.3 306.59,57.059 306.59,56.143 C306.59,55.757 306.461,55.259 306.205,54.601 L304.18,49.202 L296.243,49.202 L294.893,52.688 C294.443,53.829 294.234,54.713 294.234,55.388 C294.234,56.818 295.214,57.316 297.094,57.364 L297.094,58.023 C295.841,57.958 294.459,57.927 293.302,57.927 C292.193,57.927 291.503,57.958 290.844,58.023 L290.844,57.364 C291.695,57.171 292.676,56.48 293.431,54.504 L301.175,34.564 L301.706,34.564 L309.723,55.259 L309.723,55.259 Z" id="Fill-2652" fill="#16262B"></path>
            <path d="M321.734,35.384 C319.501,35.48 319.067,35.818 319.067,38.212 L319.067,54.536 C319.067,56.93 319.501,57.268 321.734,57.268 L324.144,57.268 C328.257,57.268 329.077,55.693 329.543,51.114 L330.298,51.114 C330.233,51.805 330.202,52.753 330.202,53.813 C330.202,54.633 330.266,56.352 330.426,58.023 C328.193,57.927 325.092,57.927 322.891,57.927 C320.915,57.927 316.576,57.927 313.347,58.023 L313.347,57.364 C315.58,57.268 316.014,56.93 316.014,54.536 L316.014,38.212 C316.014,35.818 315.58,35.48 313.347,35.384 L313.347,34.725 C314.263,34.79 315.853,34.821 317.556,34.821 C319.067,34.821 320.722,34.79 321.734,34.725 L321.734,35.384" id="Fill-2653" fill="#16262B"></path>
            <path d="M218.452,68.298 C216.219,68.395 215.785,68.732 215.785,71.126 L215.785,87.45 C215.785,89.844 216.219,90.182 218.452,90.278 L218.452,90.937 C217.536,90.873 215.961,90.841 214.242,90.841 C212.732,90.841 211.093,90.873 210.065,90.937 L210.065,90.278 C212.298,90.182 212.732,89.844 212.732,87.45 L212.732,79.545 L202.031,79.545 L202.031,87.45 C202.031,89.844 202.465,90.182 204.698,90.278 L204.698,90.937 C203.686,90.873 202.031,90.841 200.521,90.841 C198.817,90.841 197.227,90.873 196.311,90.937 L196.311,90.278 C198.545,90.182 198.978,89.844 198.978,87.45 L198.978,71.126 C198.978,68.732 198.545,68.395 196.311,68.298 L196.311,67.639 C197.227,67.704 198.817,67.735 200.521,67.735 C202.031,67.735 203.686,67.704 204.698,67.639 L204.698,68.298 C202.465,68.395 202.031,68.732 202.031,71.126 L202.031,78.886 L212.732,78.886 L212.732,71.126 C212.732,68.732 212.298,68.395 210.065,68.298 L210.065,67.639 C211.093,67.704 212.732,67.735 214.242,67.735 C215.961,67.735 217.536,67.704 218.452,67.639 L218.452,68.298" id="Fill-2654" fill="#16262B"></path>
            <path d="M225.435,79.353 C225.435,86.358 228.664,90.809 232.713,90.809 C236.987,90.809 239.751,86.037 239.751,79.224 C239.751,72.218 236.537,67.768 232.488,67.768 C228.198,67.768 225.435,72.54 225.435,79.353 Z M243.045,79.095 C243.045,86.454 238.706,91.403 232.585,91.403 C226.334,91.403 222.157,87.017 222.157,79.481 C222.157,72.122 226.495,67.173 232.617,67.173 C238.867,67.173 243.045,71.56 243.045,79.095 L243.045,79.095 Z" id="Fill-2655" fill="#16262B"></path>
            <path d="M255.137,68.298 C252.903,68.395 252.47,68.732 252.47,71.126 L252.47,87.45 C252.47,89.844 252.903,90.182 255.137,90.182 L257.547,90.182 C261.66,90.182 262.48,88.607 262.945,84.028 L263.701,84.028 C263.636,84.719 263.605,85.667 263.605,86.728 C263.605,87.547 263.669,89.266 263.829,90.937 C261.596,90.841 258.495,90.841 256.294,90.841 C254.317,90.841 249.979,90.841 246.75,90.937 L246.75,90.278 C248.983,90.182 249.417,89.844 249.417,87.45 L249.417,71.126 C249.417,68.732 248.983,68.395 246.75,68.298 L246.75,67.639 C247.666,67.704 249.256,67.735 250.959,67.735 C252.47,67.735 254.125,67.704 255.137,67.639 L255.137,68.298" id="Fill-2656" fill="#16262B"></path>
            <path d="M272.643,87.515 C272.643,89.813 273.077,90.342 275.117,90.342 C282.283,90.342 284.228,86.326 284.228,79.16 C284.228,71.785 281.898,68.233 275.085,68.233 C273.077,68.233 272.643,68.796 272.643,71.062 L272.643,87.515 Z M266.923,67.639 C267.678,67.688 268.915,67.751 270.136,67.751 C270.41,67.751 270.667,67.735 270.94,67.735 C272.45,67.704 274.651,67.639 275.905,67.639 C283.746,67.639 287.522,71.688 287.522,79.031 C287.522,86.197 283.183,90.937 275.615,90.937 C274.619,90.937 272.418,90.841 271.004,90.841 C269.461,90.841 267.839,90.873 266.923,90.937 L266.923,90.278 C269.156,90.182 269.59,89.844 269.59,87.45 L269.59,71.126 C269.59,68.732 269.156,68.395 266.923,68.298 L266.923,67.639 L266.923,67.639 Z" id="Fill-2657" fill="#16262B"></path>
            <path d="M299.645,68.298 C297.412,68.395 296.978,68.732 296.978,71.126 L296.978,87.45 C296.978,89.844 297.412,90.182 299.645,90.278 L299.645,90.937 C298.633,90.873 296.978,90.841 295.467,90.841 C293.764,90.841 292.174,90.873 291.258,90.937 L291.258,90.278 C293.491,90.182 293.925,89.844 293.925,87.45 L293.925,71.126 C293.925,68.732 293.491,68.395 291.258,68.298 L291.258,67.639 C292.174,67.704 293.764,67.735 295.467,67.735 C296.978,67.735 298.633,67.704 299.645,67.639 L299.645,68.298" id="Fill-2658" fill="#16262B"></path>
            <path d="M323.897,68.298 C321.664,68.395 321.23,69.053 321.23,71.463 L321.23,91.098 L320.475,91.098 L306.657,69.744 L306.657,87.113 C306.657,89.523 307.09,90.182 309.646,90.278 L309.646,90.937 C308.858,90.873 307.412,90.841 306.287,90.841 C305.179,90.841 303.958,90.873 303.234,90.937 L303.234,90.278 C305.468,90.182 305.901,89.523 305.901,87.113 L305.901,71.126 C305.901,68.732 305.468,68.395 303.234,68.298 L303.234,67.639 C303.958,67.704 305.179,67.735 306.287,67.735 C307.252,67.735 308.135,67.704 308.858,67.639 L320.475,85.538 L320.475,71.463 C320.475,69.053 320.057,68.395 317.486,68.298 L317.486,67.639 C318.274,67.704 319.72,67.735 320.844,67.735 C321.953,67.735 323.174,67.704 323.897,67.639 L323.897,68.298" id="Fill-2659" fill="#16262B"></path>
            <path d="M345.373,90.937 C345.34,90.182 345.035,89.057 344.473,89.057 C344.216,89.057 344.055,89.122 343.397,89.62 C341.95,90.712 340.392,91.403 338.255,91.403 C331.442,91.403 327.474,87.017 327.474,79.69 C327.474,72.009 331.94,67.173 338.062,67.173 C340.922,67.173 342.432,68.202 343.991,69.31 C344.248,69.519 344.441,69.647 344.649,69.647 C345.067,69.647 345.34,69.021 345.469,67.639 L346.224,67.639 C346.128,69.246 346.096,71.383 346.096,75.207 L345.34,75.207 C345.035,73.359 344.714,71.592 343.686,70.338 C342.4,68.732 340.199,67.768 337.998,67.768 C333.628,67.768 330.751,72.25 330.751,79.32 C330.751,87.226 333.226,90.744 338.592,90.744 C340.167,90.744 341.356,90.182 342.015,89.716 C342.834,89.153 342.962,88.736 342.962,87.917 L342.962,84.751 C342.962,82.084 342.4,81.698 339.637,81.586 L339.637,80.927 C340.794,81.007 342.802,81.04 344.28,81.04 C345.726,81.04 346.915,81.007 347.703,80.927 L347.703,81.586 C346.256,81.698 346.031,81.987 346.031,84.414 L346.031,90.937 L345.373,90.937" id="Fill-2660" fill="#16262B"></path>
            <path d="M352.613,83.273 C352.886,87.257 354.396,90.744 358.606,90.744 C360.743,90.744 362.88,89.459 362.88,86.358 C362.88,83.69 360.807,82.18 357.754,80.349 C354.621,78.469 351.89,76.685 351.89,72.974 C351.89,69.085 354.83,67.27 358.076,67.27 C360.245,67.27 361.209,67.896 362.092,68.491 C362.623,68.828 362.912,68.957 363.217,68.957 C363.635,68.957 363.812,68.458 363.94,67.511 L364.695,67.511 C364.599,68.667 364.535,70.082 364.535,74.227 L363.78,74.227 C363.539,71.094 362.028,67.896 358.381,67.896 C356.035,67.896 354.364,69.455 354.364,71.72 C354.364,74.709 356.935,75.898 359.891,77.746 C363.314,79.883 365.82,81.618 365.82,85.153 C365.82,89.33 362.655,91.403 358.831,91.403 C356.501,91.403 355.28,90.776 354.332,90.182 C353.802,89.844 353.481,89.716 353.207,89.716 C352.79,89.716 352.613,90.214 352.484,91.162 L351.729,91.162 C351.825,89.813 351.857,87.917 351.857,83.273 L352.613,83.273" id="Fill-2661" fill="#16262B"></path>
            <polygon id="Fill-2662" fill="#16262B" points="166.623 74.962 168.947 74.962 168.947 20.907 166.623 20.907"></polygon>
        </g>
    </g>
</svg>